# xmcd
#
# Track frame offsets:
#	150
#	41970
#	60521
#	78910
#	99211
#	121648
#	148986
#	175301
#	193318
#	222000
#	249244
#
# Disc length: 3606 seconds
#
# Revision: 1
# Processed by: cddbd v1.5.2PL0 Copyright (c) Steve Scherf et al.
# Submitted via: audiograbber 1.83.01
#
DISCID=950e140b
DTITLE=Joan Armatrading - Live At The Royal Albert Hall - CD2
DYEAR=2010
DGENRE=Pop
TTITLE0=Tall in the saddle
TTITLE1=My baby's gone
TTITLE2=This charming life
TTITLE3=The Weakness in me
TTITLE4=Best dress on
TTITLE5=You rope you tie me
TTITLE6=Heading back to New York City
TTITLE7=Call me names
TTITLE8=Me myself I
TTITLE9=Willow
TTITLE10=Drop the pilot
EXTD=
EXTT0=
EXTT1=
EXTT2=
EXTT3=
EXTT4=
EXTT5=
EXTT6=
EXTT7=
EXTT8=
EXTT9=
EXTT10=
PLAYORDER=
